<svg fill="none" height="24" viewBox="0 0 24 24" width="24" xmlns="http://www.w3.org/2000/svg"><path d="m22 10.8879h-5.8483l5.0649-2.92422-1.1123-1.92708-5.0649 2.92421 2.9236-5.0645-1.9271-1.11294-2.9236 5.06449v-5.84786h-2.2247v5.84842l-2.92463-5.06505-1.92648 1.11238 2.92412 5.0645-5.06491-2.92365-1.11235 1.92652 5.06491 2.92418h-5.84826v2.2248h5.8477l-5.06435 2.9242 1.11235 1.9271 5.06435-2.9236-2.92412 5.0644 1.92704 1.1124 2.92413-5.065v5.8484h2.2247v-5.8479l2.9236 5.0645 1.927-1.1124-2.9241-5.065 5.0649 2.9242 1.1124-1.9271-5.0644-2.9237h5.8476v-2.2247zm-10 4.1378c-1.6775 0-3.03716-1.3596-3.03716-3.0372 0-1.6775 1.35966-3.03721 3.03716-3.03721s3.0371 1.35971 3.0371 3.03721c0 1.6776-1.3596 3.0372-3.0371 3.0372z" fill="#625df5"/></svg>